<svg id="Layer_1" data-name="Layer 1" xmlns="http://www.w3.org/2000/svg" viewBox="0 0 512 512"><defs><style>.cls-1{fill:#fff;}</style></defs><title>behance </title><path class="cls-1" d="M215.44,240.77c5.2.73,9.85,1.15,14.31,2.63,14.25,4.73,23.13,14.89,28.65,28.38,6.3,15.41,7.24,31.54,5.94,47.88a77.08,77.08,0,0,1-9.65,32.74c-10.18,17.76-26,28.12-45.1,34.06a112.43,112.43,0,0,1-33.64,5H36.72c-3.66,0-3.67,0-3.67-3.51q0-135.3,0-270.61c0-2.22.57-2.77,2.78-2.77q71,.09,142,0c17,0,33.19,3.51,47.65,13,16.37,10.7,25.34,26.2,28.5,45.24,1.8,10.87,2,21.79-.72,32.53C248.24,224.86,235.34,236.18,215.44,240.77Zm-76.93,27.5h0c-13.07,0-26.14.06-39.21-.06-2.36,0-2.91.63-2.9,2.94q.13,34.17,0,68.34c0,2.16.48,2.83,2.74,2.81,15.22-.1,30.44.05,45.66-.08,11.29-.1,22.6.63,33.87-.47,13.4-1.31,22.71-9.27,25.89-22.31a57,57,0,0,0-.36-28.25c-4-15.24-16.37-23.42-30.11-23C162.24,268.56,150.37,268.27,138.51,268.27Zm-.79-104.54c-12.88,0-25.76,0-38.64,0-1.69,0-2.71.05-2.7,2.3.1,19,.07,38.07,0,57.11,0,1.56,0,2.55,2.17,2.54,24.83-.08,49.65.09,74.47-.1,13-.11,19.35-5.73,22.1-18.53a68.72,68.72,0,0,0,1-20.88,28.94,28.94,0,0,0-3.87-12.46c-3.91-6.49-9.59-10-17.29-10C162.54,163.75,150.13,163.73,137.72,163.73Z"/><path class="cls-1" d="M406.69,305.23c-22.88,0-45.76,0-68.64-.05-2.4,0-3.24.49-3.08,3.07a60.63,60.63,0,0,0,3.36,17.8c4,10.71,11.25,18.53,21.79,22.81,16.7,6.78,33.64,6.22,50.17-.49,10.1-4.09,16.41-11.79,17.53-23.05.13-1.32.65-1.72,1.92-1.72q22.56,0,45.11,0c1.68,0,1.73.88,1.71,2.12-.53,25.16-10.7,44.84-32.83,57.67-11.87,6.89-24.82,10.64-38.34,12.43-21.13,2.78-42.15,2.19-62.71-3.79-31.39-9.14-51.91-29.76-61.43-60.86-10.88-35.59-6.31-69.71,12.62-101.56,14.3-24,36.27-37.57,63.6-42.45,19.74-3.53,39.44-3.22,58.79,2.43,26.16,7.64,43.83,24.73,53.77,49.89,8,20.36,9.94,41.61,8.56,63.28-.13,2.07-1,2.54-3,2.53C452.64,305.2,429.67,305.23,406.69,305.23Zm-26.83-37h0c14.28,0,28.55,0,42.82,0,2,0,3-.36,2.49-2.62-.43-2-.48-4.08-.88-6.08-2.53-12.64-8.11-23.41-20.13-29.32-13.67-6.73-27.9-6.5-41.7-.54-16,6.9-23.77,20.49-27.76,36.7-.57,2.3,1.13,1.81,2.34,1.81Z"/><path class="cls-1" d="M379.2,165c-17.93,0-35.86-.05-53.79.07-2.54,0-3.09-.76-3.05-3.16.13-9.43.1-18.87,0-28.3,0-2,.33-2.74,2.57-2.74q54.63.11,109.27,0c2,0,2.46.65,2.44,2.55q-.13,14.56,0,29.14c0,2-.62,2.48-2.54,2.47C415.82,165,397.51,165,379.2,165Z"/></svg>